<svg xmlns="http://www.w3.org/2000/svg" width="128" height="128" viewBox="0 0 128 128" role="img" aria-label="Click Git logo">
  <defs>
    <linearGradient id="bg" x1="14" y1="10" x2="118" y2="122" gradientUnits="userSpaceOnUse">
      <stop offset="0" stop-color="#172033"/>
      <stop offset="1" stop-color="#0f766e"/>
    </linearGradient>
    <linearGradient id="folder" x1="25" y1="38" x2="103" y2="96" gradientUnits="userSpaceOnUse">
      <stop offset="0" stop-color="#fbbf24"/>
      <stop offset="1" stop-color="#f97316"/>
    </linearGradient>
    <filter id="shadow" x="-20%" y="-20%" width="140%" height="140%">
      <feDropShadow dx="0" dy="6" stdDeviation="6" flood-color="#020617" flood-opacity="0.32"/>
    </filter>
  </defs>
  <rect x="8" y="8" width="112" height="112" rx="24" fill="url(#bg)"/>
  <path d="M27 38h27l10 10h37c6 0 10 4 10 10v39c0 6-4 10-10 10H27c-6 0-10-4-10-10V48c0-6 4-10 10-10Z" fill="#92400e" opacity="0.45" filter="url(#shadow)"/>
  <path d="M24 34h29l10 10h41c6 0 10 4 10 10v41c0 6-4 10-10 10H24c-6 0-10-4-10-10V44c0-6 4-10 10-10Z" fill="url(#folder)"/>
  <path d="M22 55h84c5 0 9 4 9 9v31c0 6-4 10-10 10H24c-6 0-10-4-10-10V64c0-5 3-9 8-9Z" fill="#f59e0b"/>
  <path d="M82 42c0-7-5-12-12-12H58" stroke="#ccfbf1" stroke-width="8" stroke-linecap="round" fill="none"/>
  <path d="M72 41h23" stroke="#ccfbf1" stroke-width="8" stroke-linecap="round"/>
  <circle cx="55" cy="76" r="8" fill="#0f172a"/>
  <circle cx="87" cy="76" r="8" fill="#0f172a"/>
  <circle cx="71" cy="94" r="8" fill="#0f172a"/>
  <path d="M55 76h32M71 94 55 76M71 94 87 76" stroke="#0f172a" stroke-width="5" stroke-linecap="round" stroke-linejoin="round"/>
  <circle cx="55" cy="76" r="4" fill="#ccfbf1"/>
  <circle cx="87" cy="76" r="4" fill="#ccfbf1"/>
  <circle cx="71" cy="94" r="4" fill="#ccfbf1"/>
</svg>
