<svg xmlns="http://www.w3.org/2000/svg" width="128" height="128" viewBox="0 0 128 128" role="img" aria-label="Click Git logo">
  <defs>
    <linearGradient id="tile" x1="16" y1="14" x2="112" y2="114" gradientUnits="userSpaceOnUse">
      <stop stop-color="#1ECEBE"/>
      <stop offset="1" stop-color="#087068"/>
    </linearGradient>
    <filter id="shadow" x="0" y="0" width="128" height="128" color-interpolation-filters="sRGB">
      <feDropShadow dx="0" dy="5" stdDeviation="4" flood-color="#020617" flood-opacity=".32"/>
    </filter>
  </defs>
  <rect x="15" y="14" width="98" height="98" rx="20" fill="url(#tile)" filter="url(#shadow)"/>
  <path d="M49 35v40M49 41c15 6 25 16 32 31" stroke="#fff" stroke-width="7" stroke-linecap="round"/>
  <circle cx="49" cy="35" r="9" fill="#fff"/>
  <circle cx="49" cy="76" r="9" fill="#fff"/>
  <circle cx="82" cy="73" r="9" fill="#fff"/>
  <circle cx="49" cy="35" r="4" fill="#0d8e84"/>
  <circle cx="49" cy="76" r="4" fill="#0d8e84"/>
  <circle cx="82" cy="73" r="4" fill="#0d8e84"/>
  <path d="M30 76l32 32 2-19 17 8 6-12-17-8 18-14-58 13z" fill="#fff" stroke="#020617" stroke-width="4" stroke-linejoin="round"/>
</svg>
